# xmcd
#
# Track frame offsets: 
#        150
#        18978
#        35855
#        45082
#        56784
#        69012
#        79951
#        90852
#        104835
#        117759
#        130843
#        145927
#        160178
#        173788
#
# Disc length: 2749 seconds
#
# Revision: 0
# Processed by: cddbd v1.5.2PL0 Copyright (c) Steve Scherf et al.
# Submitted via: ExactAudioCopy v0.99pb4
#
DISCID=b20abb0e
DTITLE=Matja Mattlar - Vuerenkylässä
DYEAR=2007
DGENRE=Folk
TTITLE0=Tässä elämässä
TTITLE1=Löytöretkellä
TTITLE2=Muutto
TTITLE3=Elinkautinen
TTITLE4=Irti
TTITLE5=Päiväkirja
TTITLE6=Ankaran talven jälkeen
TTITLE7=Kehtolaulu
TTITLE8=Taivaanlaiva
TTITLE9=Elämätön elämä
TTITLE10=Lähempänä poissa
TTITLE11=Valssi
TTITLE12=Lähtölaulu
TTITLE13=Lintu
EXTD=
EXTT0=
EXTT1=
EXTT2=
EXTT3=
EXTT4=
EXTT5=
EXTT6=
EXTT7=
EXTT8=
EXTT9=
EXTT10=
EXTT11=
EXTT12=
EXTT13=
PLAYORDER=
